# xmcd CD database file
# Copyright (C) 1993-1998 Ti Kan
#
# Track frame offsets:
# 180
# 17006
# 31251
# 47361
# 63795
# 80123
# 101982
# 119618
# 134272
# 142748
# 161768
# 177719
# 194637
# 209722
# 225975
# 244326
# 253334
# 273802
# 289394
# 307094
#
# Disc length: 4296 seconds
# Revision: 0
# Processed by: cddbd v1.4b41PL1 Copyright (c) Steve Scherf et al.
# Submitted via: CDSpectrumPro v3.3.333
#
DISCID=3310c614
DTITLE=Various Artist - La Chanson Francaise Traditionnelle - Florilege
DYEAR=1900
DGENRE=
TTITLE0=Marc Robine - Gironfla
TTITLE1=Michele Bernard - Vive la Rose
TTITLE2=Tonio Gememe - Le retour de Marin
TTITLE3=Jean Blanchard - Soldat par Chagrin
TTITLE4=Benedicte Le Croart and Martine Sarri - Je Regrette, Nom de Nom!
TTITLE5=Marc Robine - Les Enfants de Pontoise
TTITLE6=Anne Sylvestre - Le roi a Fait Battre Tambour
TTITLE7=Chifonnie - V'la l'Bon Vent
TTITLE8=Jean-Michel Saint-Cricq - A l'Entour du Moulin
TTITLE9=Marc Robine - Aux Marches du Palais
TTITLE10=Chifonnie - Avoine
TTITLE11=Ben - Le Mai de Clerieux
TTITLE12=Michele Bernard - A la Claire Fontaine
TTITLE13=Tonio Gememe - Sur le Pont du Nord
TTITLE14=Marc Robine - Compagnons de la Marjolaine
TTITLE15=Michele Bernard - Fleur d'Epine
TTITLE16=Hal Collomb - Aupres de ma Blonde
TTITLE17=Alain Charrie - Le Conscrit de 1810
TTITLE18=Gabriol Yacoub - Comprendez-vous
TTITLE19=Marc Robine - Le Temps des Cerises
EXTD=Anthologie de la Chanson Francaise
EXTT0=
EXTT1=
EXTT2=
EXTT3=
EXTT4=
EXTT5=
EXTT6=
EXTT7=
EXTT8=
EXTT9=
EXTT10=
EXTT11=
EXTT12=
EXTT13=
EXTT14=
EXTT15=
EXTT16=
EXTT17=
EXTT18=
EXTT19=
PLAYORDER=
